<svg width="366" height="91" viewBox="0 0 366 91" fill="none" xmlns="http://www.w3.org/2000/svg">
<path d="M24.6718 36H19.6498L4.63031 19.167V36H0.445315V2.799H4.63031V18.888L19.2778 2.799H24.0208L9.60581 18.9345L24.6718 36ZM50.3009 23.4915C50.3009 27.6145 49.2469 30.8075 47.1389 33.0705C45.0619 35.3335 42.2409 36.465 38.6759 36.465C36.4749 36.465 34.5064 35.969 32.7704 34.977C31.0654 33.954 29.7169 32.4815 28.7249 30.5595C27.7329 28.6065 27.2369 26.2505 27.2369 23.4915C27.2369 19.3685 28.2754 16.191 30.3524 13.959C32.4294 11.727 35.2504 10.611 38.8154 10.611C41.0784 10.611 43.0624 11.1225 44.7674 12.1455C46.5034 13.1375 47.8519 14.5945 48.8129 16.5165C49.8049 18.4075 50.3009 20.7325 50.3009 23.4915ZM31.4684 23.4915C31.4684 26.4365 32.0419 28.777 33.1889 30.513C34.3669 32.218 36.2269 33.0705 38.7689 33.0705C41.2799 33.0705 43.1244 32.218 44.3024 30.513C45.4804 28.777 46.0694 26.4365 46.0694 23.4915C46.0694 20.5465 45.4804 18.237 44.3024 16.563C43.1244 14.889 41.2644 14.052 38.7224 14.052C36.1804 14.052 34.3359 14.889 33.1889 16.563C32.0419 18.237 31.4684 20.5465 31.4684 23.4915ZM90.5917 11.076V36H56.7862V11.076H60.8782V32.559H71.6197V11.076H75.7117V32.559H86.4997V11.076H90.5917ZM108.003 10.6575C111.041 10.6575 113.289 11.324 114.746 12.657C116.203 13.99 116.931 16.1135 116.931 19.0275V36H113.955L113.165 32.466H112.979C111.894 33.83 110.747 34.8375 109.538 35.4885C108.36 36.1395 106.717 36.465 104.609 36.465C102.346 36.465 100.47 35.876 98.9821 34.698C97.4941 33.489 96.7501 31.6135 96.7501 29.0715C96.7501 26.5915 97.7266 24.685 99.6796 23.352C101.633 21.988 104.64 21.244 108.701 21.12L112.932 20.9805V19.4925C112.932 17.4155 112.483 15.974 111.584 15.168C110.685 14.362 109.414 13.959 107.771 13.959C106.469 13.959 105.229 14.1605 104.051 14.5635C102.873 14.9355 101.772 15.3695 100.749 15.8655L99.4936 12.7965C100.579 12.2075 101.865 11.7115 103.353 11.3085C104.841 10.8745 106.391 10.6575 108.003 10.6575ZM109.212 23.9565C106.112 24.0805 103.958 24.5765 102.749 25.4445C101.571 26.3125 100.982 27.537 100.982 29.118C100.982 30.513 101.4 31.536 102.237 32.187C103.105 32.838 104.206 33.1635 105.539 33.1635C107.647 33.1635 109.398 32.59 110.793 31.443C112.188 30.265 112.886 28.467 112.886 26.049V23.817L109.212 23.9565ZM128.21 20.1435C128.21 22.9955 129.806 24.4215 132.999 24.4215C134.549 24.4215 135.96 24.189 137.231 23.724C138.502 23.228 139.804 22.577 141.137 21.771V11.076H145.229V36H141.137V24.8865C139.742 25.7855 138.362 26.4985 136.998 27.0255C135.665 27.5215 134.053 27.7695 132.162 27.7695C129.62 27.7695 127.636 27.103 126.21 25.77C124.815 24.437 124.118 22.6545 124.118 20.4225V11.076H128.21V20.1435ZM157.006 26.2815C157.006 26.6535 156.991 27.2115 156.96 27.9555C156.929 28.6995 156.882 29.4435 156.82 30.1875C156.789 30.9315 156.758 31.5205 156.727 31.9545L170.073 11.076H175.095V36H171.282V21.306C171.282 20.81 171.282 20.159 171.282 19.353C171.313 18.547 171.344 17.7565 171.375 16.9815C171.406 16.1755 171.437 15.571 171.468 15.168L158.215 36H153.147V11.076H157.006V26.2815ZM203.207 0.752999C202.99 3.078 202.2 4.845 200.836 6.054C199.503 7.232 197.364 7.821 194.419 7.821C191.381 7.821 189.226 7.232 187.955 6.054C186.715 4.876 186.018 3.109 185.863 0.752999H189.676C189.831 2.427 190.265 3.5585 190.978 4.1475C191.722 4.7055 192.9 4.9845 194.512 4.9845C195.938 4.9845 197.054 4.69 197.86 4.101C198.697 3.481 199.193 2.365 199.348 0.752999H203.207ZM186.886 26.2815C186.886 26.6535 186.87 27.2115 186.839 27.9555C186.808 28.6995 186.762 29.4435 186.7 30.1875C186.669 30.9315 186.638 31.5205 186.607 31.9545L199.952 11.076H204.974V36H201.161V21.306C201.161 20.81 201.161 20.159 201.161 19.353C201.192 18.547 201.223 17.7565 201.254 16.9815C201.285 16.1755 201.316 15.571 201.347 15.168L188.095 36H183.026V11.076H186.886V26.2815ZM243.416 11.076V36H239.324V14.5635H226.444V36H222.352V11.076H243.416ZM263.226 10.611C266.295 10.611 268.76 11.6805 270.62 13.8195C272.511 15.9585 273.456 19.1825 273.456 23.4915C273.456 27.7385 272.511 30.9625 270.62 33.1635C268.76 35.3645 266.28 36.465 263.18 36.465C261.258 36.465 259.661 36.1085 258.39 35.3955C257.15 34.6515 256.174 33.799 255.461 32.838H255.182C255.244 33.365 255.306 34.0315 255.368 34.8375C255.43 35.6435 255.461 36.341 255.461 36.93V47.16H251.369V11.076H254.717L255.275 14.4705H255.461C256.205 13.3855 257.181 12.471 258.39 11.727C259.599 10.983 261.211 10.611 263.226 10.611ZM262.482 14.052C259.94 14.052 258.142 14.765 257.088 16.191C256.065 17.617 255.523 19.787 255.461 22.701V23.4915C255.461 26.5605 255.957 28.932 256.949 30.606C257.972 32.249 259.847 33.0705 262.575 33.0705C264.094 33.0705 265.334 32.652 266.295 31.815C267.287 30.978 268.016 29.8465 268.481 28.4205C268.977 26.9635 269.225 25.305 269.225 23.445C269.225 20.593 268.667 18.3145 267.551 16.6095C266.466 14.9045 264.776 14.052 262.482 14.052ZM283.837 26.2815C283.837 26.6535 283.821 27.2115 283.79 27.9555C283.759 28.6995 283.713 29.4435 283.651 30.1875C283.62 30.9315 283.589 31.5205 283.558 31.9545L296.903 11.076H301.925V36H298.112V21.306C298.112 20.81 298.112 20.159 298.112 19.353C298.143 18.547 298.174 17.7565 298.205 16.9815C298.236 16.1755 298.267 15.571 298.298 15.168L285.046 36H279.977V11.076H283.837V26.2815ZM342.221 23.4915C342.221 27.6145 341.229 30.8075 339.245 33.0705C337.261 35.3335 334.58 36.465 331.201 36.465C328.039 36.465 325.481 35.473 323.528 33.489C321.606 31.505 320.521 28.6375 320.273 24.8865H313.949V36H309.857V11.076H313.949V21.4455H320.32C320.661 17.9425 321.792 15.261 323.714 13.401C325.636 11.541 328.163 10.611 331.294 10.611C333.433 10.611 335.324 11.1225 336.967 12.1455C338.61 13.1375 339.896 14.5945 340.826 16.5165C341.756 18.4075 342.221 20.7325 342.221 23.4915ZM324.458 23.4915C324.458 26.6225 325.001 29.0095 326.086 30.6525C327.171 32.2645 328.891 33.0705 331.247 33.0705C333.634 33.0705 335.355 32.2645 336.409 30.6525C337.463 29.0095 337.99 26.6225 337.99 23.4915C337.99 20.3605 337.447 18.0045 336.362 16.4235C335.308 14.8425 333.603 14.052 331.247 14.052C328.891 14.052 327.171 14.8425 326.086 16.4235C325.001 18.0045 324.458 20.3605 324.458 23.4915ZM365.479 14.517H357.342V36H353.296V14.517H345.252V11.076H365.479V14.517ZM58.1622 65.076V90H54.4887V74.097C54.4887 73.446 54.5042 72.764 54.5352 72.051C54.5972 71.338 54.6592 70.6405 54.7212 69.9585H54.5817L46.4442 90H43.0032L35.0982 69.9585H34.9587C35.0517 71.3535 35.0982 72.7795 35.0982 74.2365V90H31.4247V65.076H36.8652L44.7237 85.1175L52.7217 65.076H58.1622ZM67.6525 90H62.9095L70.024 79.5375C69.063 79.2895 68.133 78.902 67.234 78.375C66.335 77.817 65.6065 77.0575 65.0485 76.0965C64.4905 75.1045 64.2115 73.88 64.2115 72.423C64.2115 70.036 65.0175 68.2225 66.6295 66.9825C68.2415 65.7115 70.3805 65.076 73.0465 65.076H84.2065V90H80.1145V80.0955H74.0695L67.6525 90ZM68.164 72.4695C68.164 73.8955 68.691 74.965 69.745 75.678C70.83 76.36 72.3335 76.701 74.2555 76.701H80.1145V68.4705H73.465C71.574 68.4705 70.21 68.8425 69.373 69.5865C68.567 70.3305 68.164 71.2915 68.164 72.4695ZM107.298 65.076V68.517H96.1846V90H92.0926V65.076H107.298ZM126.95 65.076H131.414L120.765 77.073L132.297 90H127.554L116.301 77.352V90H112.209V65.076H116.301V77.166L126.95 65.076ZM140.681 80.2815C140.681 80.6535 140.666 81.2115 140.635 81.9555C140.604 82.6995 140.557 83.4435 140.495 84.1875C140.464 84.9315 140.433 85.5205 140.402 85.9545L153.748 65.076H158.77V90H154.957V75.306C154.957 74.81 154.957 74.159 154.957 73.353C154.988 72.547 155.019 71.7565 155.05 70.9815C155.081 70.1755 155.112 69.571 155.143 69.168L141.89 90H136.822V65.076H140.681V80.2815ZM176.327 64.611C178.466 64.611 180.295 65.076 181.814 66.006C183.364 66.936 184.542 68.2535 185.348 69.9585C186.185 71.6325 186.604 73.601 186.604 75.864V78.3285H169.538C169.6 81.1495 170.313 83.304 171.677 84.792C173.072 86.249 175.01 86.9775 177.49 86.9775C179.071 86.9775 180.466 86.838 181.675 86.559C182.915 86.249 184.186 85.815 185.488 85.257V88.8375C184.217 89.3955 182.961 89.7985 181.721 90.0465C180.481 90.3255 179.009 90.465 177.304 90.465C174.948 90.465 172.855 89.9845 171.026 89.0235C169.228 88.0625 167.818 86.6365 166.795 84.7455C165.803 82.8235 165.307 80.483 165.307 77.724C165.307 74.996 165.756 72.6555 166.655 70.7025C167.585 68.7495 168.872 67.246 170.515 66.192C172.189 65.138 174.126 64.611 176.327 64.611ZM176.281 67.959C174.328 67.959 172.778 68.5945 171.631 69.8655C170.515 71.1055 169.848 72.8415 169.631 75.0735H182.326C182.295 72.9655 181.799 71.2605 180.838 69.9585C179.877 68.6255 178.358 67.959 176.281 67.959ZM221.366 90H217.227V68.4705H209.88C209.477 73.7095 208.919 77.941 208.206 81.165C207.493 84.358 206.548 86.683 205.37 88.14C204.192 89.597 202.704 90.3255 200.906 90.3255C200.503 90.3255 200.1 90.2945 199.697 90.2325C199.325 90.2015 199.015 90.124 198.767 90V86.931C198.953 86.993 199.154 87.0395 199.371 87.0705C199.588 87.1015 199.805 87.117 200.022 87.117C201.696 87.117 203.029 85.3345 204.021 81.7695C205.044 78.2045 205.819 72.64 206.346 65.076H221.366V90ZM238.716 64.6575C241.754 64.6575 244.002 65.324 245.459 66.657C246.916 67.99 247.644 70.1135 247.644 73.0275V90H244.668L243.878 86.466H243.692C242.607 87.83 241.46 88.8375 240.251 89.4885C239.073 90.1395 237.43 90.465 235.322 90.465C233.059 90.465 231.183 89.876 229.695 88.698C228.207 87.489 227.463 85.6135 227.463 83.0715C227.463 80.5915 228.44 78.685 230.393 77.352C232.346 75.988 235.353 75.244 239.414 75.12L243.645 74.9805V73.4925C243.645 71.4155 243.196 69.974 242.297 69.168C241.398 68.362 240.127 67.959 238.484 67.959C237.182 67.959 235.942 68.1605 234.764 68.5635C233.586 68.9355 232.485 69.3695 231.462 69.8655L230.207 66.7965C231.292 66.2075 232.578 65.7115 234.066 65.3085C235.554 64.8745 237.104 64.6575 238.716 64.6575ZM239.925 77.9565C236.825 78.0805 234.671 78.5765 233.462 79.4445C232.284 80.3125 231.695 81.537 231.695 83.118C231.695 84.513 232.113 85.536 232.95 86.187C233.818 86.838 234.919 87.1635 236.252 87.1635C238.36 87.1635 240.111 86.59 241.506 85.443C242.901 84.265 243.599 82.467 243.599 80.049V77.817L239.925 77.9565ZM276.407 65.076V90H272.315V68.5635H259.434V90H255.342V65.076H276.407ZM299.1 65.076H303.564L292.915 77.073L304.447 90H299.704L288.451 77.352V90H284.359V65.076H288.451V77.166L299.1 65.076ZM312.831 80.2815C312.831 80.6535 312.816 81.2115 312.785 81.9555C312.754 82.6995 312.707 83.4435 312.645 84.1875C312.614 84.9315 312.583 85.5205 312.552 85.9545L325.898 65.076H330.92V90H327.107V75.306C327.107 74.81 327.107 74.159 327.107 73.353C327.138 72.547 327.169 71.7565 327.2 70.9815C327.231 70.1755 327.262 69.571 327.293 69.168L314.04 90H308.972V65.076H312.831V80.2815Z" fill="#F4F4F4"/>
</svg>
